<svg xmlns="http://www.w3.org/2000/svg" viewBox="0 0 1200 400" fill="none">
  <defs>
    <linearGradient id="bg" x1="0%" y1="0%" x2="100%" y2="100%">
      <stop offset="0%" stop-color="#0f0b1a"/>
      <stop offset="100%" stop-color="#1a1030"/>
    </linearGradient>
    <linearGradient id="arc" x1="0%" y1="0%" x2="100%" y2="100%">
      <stop offset="0%" stop-color="#6366f1"/>
      <stop offset="100%" stop-color="#a78bfa"/>
    </linearGradient>
  </defs>

  <rect width="1200" height="400" rx="16" fill="url(#bg)"/>

  <!-- Subtle dot grid -->
  <g opacity="0.06" fill="#a78bfa">
    <circle cx="100" cy="100" r="1.5"/><circle cx="200" cy="100" r="1.5"/><circle cx="300" cy="100" r="1.5"/>
    <circle cx="100" cy="200" r="1.5"/><circle cx="200" cy="200" r="1.5"/><circle cx="300" cy="200" r="1.5"/>
    <circle cx="100" cy="300" r="1.5"/><circle cx="200" cy="300" r="1.5"/><circle cx="300" cy="300" r="1.5"/>
    <circle cx="900" cy="100" r="1.5"/><circle cx="1000" cy="100" r="1.5"/><circle cx="1100" cy="100" r="1.5"/>
    <circle cx="900" cy="200" r="1.5"/><circle cx="1000" cy="200" r="1.5"/><circle cx="1100" cy="200" r="1.5"/>
    <circle cx="900" cy="300" r="1.5"/><circle cx="1000" cy="300" r="1.5"/><circle cx="1100" cy="300" r="1.5"/>
  </g>

  <!-- Logo mark -->
  <g transform="translate(340, 80)">
    <path d="M 0 200 Q 0 100 100 100" stroke="url(#arc)" stroke-width="14" fill="none" stroke-linecap="round"/>
    <path d="M 100 0 Q 100 100 100 100" stroke="url(#arc)" stroke-width="14" fill="none" stroke-linecap="round"/>
    <path d="M 200 200 Q 200 100 100 100" stroke="url(#arc)" stroke-width="14" fill="none" stroke-linecap="round"/>
    <circle cx="0" cy="200" r="12" fill="#818cf8"/>
    <circle cx="100" cy="0" r="12" fill="#818cf8"/>
    <circle cx="200" cy="200" r="12" fill="#818cf8"/>
    <circle cx="100" cy="100" r="18" fill="url(#arc)"/>
  </g>

  <!-- Wordmark -->
  <text x="600" y="185" font-family="-apple-system, 'SF Pro Display', 'Segoe UI', Helvetica, Arial, sans-serif" font-size="72" font-weight="700" letter-spacing="8" fill="#e0e7ff">MERIDIAN</text>

  <!-- Tagline -->
  <text x="602" y="232" font-family="-apple-system, 'SF Pro Display', 'Segoe UI', Helvetica, Arial, sans-serif" font-size="18" font-weight="400" letter-spacing="4" fill="#a78bfa">YOUR SUBSCRIPTION. EVERY AGENT.</text>

  <!-- Descriptor -->
  <text x="602" y="276" font-family="-apple-system, 'SF Pro Display', 'Segoe UI', Helvetica, Arial, sans-serif" font-size="14" font-weight="300" fill="#6b7280">Local Anthropic API powered by the Claude Code SDK</text>
</svg>
